<svg width="150" height="150" viewBox="0 0 150 150" fill="none" xmlns="http://www.w3.org/2000/svg">
<g clip-path="url(#clip0_1_10)">
<rect width="150" height="150" fill="white"/>
<path d="M35 10V144" stroke="black" stroke-width="10"/>
<path d="M115 10V144" stroke="black" stroke-width="10"/>
<path d="M30 11L120 11" stroke="black" stroke-width="10"/>
<path d="M51 31.6404L106 19V144L51 131.36V31.6404Z" fill="black"/>
<path d="M150 54H0V79H150V54Z" fill="white"/>
<path d="M23.4984 75.008V74.672C23.8824 74.6187 24.2184 74.4907 24.5064 74.288C24.7944 74.096 25.0131 73.7493 25.1624 73.248C25.3224 72.7573 25.4024 72.048 25.4024 71.12V62.368C25.4024 61.9733 25.3758 61.6853 25.3224 61.504C25.2691 61.312 25.1571 61.184 24.9864 61.12C24.8264 61.0453 24.5864 61.0027 24.2664 60.992V60.672C24.5544 60.6827 24.9384 60.6933 25.4184 60.704C25.8984 60.7147 26.4051 60.72 26.9384 60.72C27.4718 60.72 27.9944 60.7147 28.5064 60.704C29.0291 60.6933 29.4558 60.6827 29.7864 60.672V60.992C29.4664 61.0027 29.2211 61.0453 29.0504 61.12C28.8904 61.184 28.7838 61.312 28.7304 61.504C28.6771 61.6853 28.6504 61.9733 28.6504 62.368V68.224C28.6504 68.6613 28.6504 69.136 28.6504 69.648C28.6611 70.1493 28.6451 70.64 28.6024 71.12C28.5704 71.6 28.4958 72.0267 28.3784 72.4C28.1438 73.136 27.6264 73.7547 26.8264 74.256C26.0264 74.7573 24.9171 75.008 23.4984 75.008ZM39.5248 60.672C39.4821 61.2053 39.4501 61.7227 39.4288 62.224C39.4181 62.7147 39.4128 63.0933 39.4128 63.36C39.4128 63.584 39.4181 63.7973 39.4288 64C39.4395 64.2027 39.4501 64.3733 39.4608 64.512H39.0928C38.9648 63.6267 38.7515 62.9333 38.4528 62.432C38.1541 61.92 37.8021 61.5627 37.3968 61.36C37.0021 61.1467 36.5861 61.04 36.1488 61.04H35.9408C35.6635 61.04 35.4555 61.0667 35.3168 61.12C35.1781 61.1627 35.0821 61.2533 35.0288 61.392C34.9861 61.5307 34.9648 61.7493 34.9648 62.048V70.624C34.9648 70.912 34.9861 71.1307 35.0288 71.28C35.0821 71.4187 35.1781 71.5147 35.3168 71.568C35.4555 71.6107 35.6635 71.632 35.9408 71.632H36.4688C36.8208 71.632 37.1888 71.52 37.5728 71.296C37.9675 71.0613 38.3301 70.6667 38.6608 70.112C38.9915 69.5573 39.2421 68.8 39.4128 67.84H39.7808C39.7488 68.224 39.7328 68.7147 39.7328 69.312C39.7328 69.5787 39.7381 69.9627 39.7488 70.464C39.7595 70.9547 39.7915 71.4667 39.8448 72C39.3008 71.9787 38.6875 71.968 38.0048 71.968C37.3221 71.9573 36.7141 71.952 36.1808 71.952C35.8928 71.952 35.5248 71.952 35.0768 71.952C34.6395 71.952 34.1595 71.9573 33.6368 71.968C33.1248 71.968 32.6021 71.9733 32.0688 71.984C31.5461 71.984 31.0501 71.9893 30.5808 72V71.68C30.9115 71.6587 31.1568 71.616 31.3168 71.552C31.4768 71.488 31.5835 71.36 31.6368 71.168C31.6901 70.976 31.7168 70.688 31.7168 70.304V62.368C31.7168 61.9733 31.6901 61.6853 31.6368 61.504C31.5835 61.312 31.4715 61.184 31.3008 61.12C31.1408 61.0453 30.9008 61.0027 30.5808 60.992V60.672C31.0501 60.6827 31.5461 60.6933 32.0688 60.704C32.6021 60.704 33.1248 60.7093 33.6368 60.72C34.1595 60.72 34.6395 60.72 35.0768 60.72C35.5248 60.72 35.8928 60.72 36.1808 60.72C36.6715 60.72 37.2261 60.72 37.8448 60.72C38.4741 60.7093 39.0341 60.6933 39.5248 60.672ZM37.2048 66.144C37.2048 66.144 37.2048 66.1973 37.2048 66.304C37.2048 66.4107 37.2048 66.464 37.2048 66.464H34.4848C34.4848 66.464 34.4848 66.4107 34.4848 66.304C34.4848 66.1973 34.4848 66.144 34.4848 66.144H37.2048ZM37.6688 64.032C37.6261 64.64 37.6048 65.104 37.6048 65.424C37.6155 65.744 37.6208 66.0373 37.6208 66.304C37.6208 66.5707 37.6261 66.864 37.6368 67.184C37.6475 67.504 37.6741 67.968 37.7168 68.576H37.3488C37.2848 68.1813 37.1515 67.824 36.9488 67.504C36.7568 67.184 36.5061 66.9333 36.1968 66.752C35.8875 66.56 35.5301 66.464 35.1248 66.464V66.144C35.4235 66.144 35.6955 66.08 35.9408 65.952C36.1861 65.824 36.3995 65.6533 36.5808 65.44C36.7728 65.2267 36.9275 64.9973 37.0448 64.752C37.1728 64.5067 37.2581 64.2667 37.3008 64.032H37.6688ZM45.3711 60.448C46.0644 60.448 46.6031 60.5173 46.9871 60.656C47.3711 60.7947 47.6964 60.9387 47.9631 61.088C48.0911 61.1627 48.1924 61.2213 48.2671 61.264C48.3524 61.296 48.4324 61.312 48.5071 61.312C48.6137 61.312 48.6884 61.2533 48.7311 61.136C48.7844 61.0187 48.8271 60.8427 48.8591 60.608H49.2271C49.2164 60.832 49.2004 61.0933 49.1791 61.392C49.1684 61.6907 49.1577 62.0853 49.1471 62.576C49.1471 63.0667 49.1471 63.712 49.1471 64.512H48.7791C48.7364 63.9253 48.5977 63.3547 48.3631 62.8C48.1391 62.2453 47.8244 61.7867 47.4191 61.424C47.0244 61.0613 46.5497 60.88 45.9951 60.88C45.5257 60.88 45.1364 61.008 44.8271 61.264C44.5177 61.52 44.3631 61.888 44.3631 62.368C44.3631 62.7627 44.4591 63.104 44.6511 63.392C44.8431 63.6693 45.1417 63.9627 45.5471 64.272C45.9631 64.5813 46.5071 64.9707 47.1791 65.44C47.6591 65.7707 48.0911 66.1013 48.4751 66.432C48.8697 66.7627 49.1844 67.136 49.4191 67.552C49.6537 67.968 49.7711 68.4693 49.7711 69.056C49.7711 69.7707 49.5684 70.3627 49.1631 70.832C48.7684 71.3013 48.2404 71.6533 47.5791 71.888C46.9177 72.112 46.1977 72.224 45.4191 72.224C44.6937 72.224 44.1124 72.16 43.6751 72.032C43.2484 71.904 42.8857 71.7707 42.5871 71.632C42.3524 71.4827 42.1711 71.408 42.0431 71.408C41.9364 71.408 41.8564 71.4667 41.8031 71.584C41.7604 71.7013 41.7231 71.8773 41.6911 72.112H41.3231C41.3444 71.8347 41.3551 71.5147 41.3551 71.152C41.3657 70.7787 41.3711 70.2987 41.3711 69.712C41.3817 69.1253 41.3871 68.3787 41.3871 67.472H41.7551C41.7977 68.2187 41.9151 68.9173 42.1071 69.568C42.3097 70.2187 42.6137 70.7467 43.0191 71.152C43.4351 71.5467 43.9844 71.744 44.6671 71.744C45.0617 71.744 45.3977 71.6853 45.6751 71.568C45.9631 71.44 46.1871 71.2587 46.3471 71.024C46.5071 70.7893 46.5871 70.5067 46.5871 70.176C46.5871 69.728 46.4857 69.3387 46.2831 69.008C46.0804 68.6667 45.8031 68.352 45.4511 68.064C45.1097 67.7653 44.7097 67.4667 44.2511 67.168C43.7497 66.8267 43.2804 66.4853 42.8431 66.144C42.4057 65.8027 42.0537 65.4187 41.7871 64.992C41.5311 64.5653 41.4031 64.0587 41.4031 63.472C41.4031 62.768 41.5897 62.1973 41.9631 61.76C42.3364 61.312 42.8271 60.9813 43.4351 60.768C44.0431 60.5547 44.6884 60.448 45.3711 60.448ZM55.1836 60.448C55.8769 60.448 56.4156 60.5173 56.7996 60.656C57.1836 60.7947 57.5089 60.9387 57.7756 61.088C57.9036 61.1627 58.0049 61.2213 58.0796 61.264C58.1649 61.296 58.2449 61.312 58.3196 61.312C58.4262 61.312 58.5009 61.2533 58.5436 61.136C58.5969 61.0187 58.6396 60.8427 58.6716 60.608H59.0396C59.0289 60.832 59.0129 61.0933 58.9916 61.392C58.9809 61.6907 58.9702 62.0853 58.9596 62.576C58.9596 63.0667 58.9596 63.712 58.9596 64.512H58.5916C58.5489 63.9253 58.4102 63.3547 58.1756 62.8C57.9516 62.2453 57.6369 61.7867 57.2316 61.424C56.8369 61.0613 56.3622 60.88 55.8076 60.88C55.3382 60.88 54.9489 61.008 54.6396 61.264C54.3302 61.52 54.1756 61.888 54.1756 62.368C54.1756 62.7627 54.2716 63.104 54.4636 63.392C54.6556 63.6693 54.9542 63.9627 55.3596 64.272C55.7756 64.5813 56.3196 64.9707 56.9916 65.44C57.4716 65.7707 57.9036 66.1013 58.2876 66.432C58.6822 66.7627 58.9969 67.136 59.2316 67.552C59.4662 67.968 59.5836 68.4693 59.5836 69.056C59.5836 69.7707 59.3809 70.3627 58.9756 70.832C58.5809 71.3013 58.0529 71.6533 57.3916 71.888C56.7302 72.112 56.0102 72.224 55.2316 72.224C54.5062 72.224 53.9249 72.16 53.4876 72.032C53.0609 71.904 52.6982 71.7707 52.3996 71.632C52.1649 71.4827 51.9836 71.408 51.8556 71.408C51.7489 71.408 51.6689 71.4667 51.6156 71.584C51.5729 71.7013 51.5356 71.8773 51.5036 72.112H51.1356C51.1569 71.8347 51.1676 71.5147 51.1676 71.152C51.1782 70.7787 51.1836 70.2987 51.1836 69.712C51.1942 69.1253 51.1996 68.3787 51.1996 67.472H51.5676C51.6102 68.2187 51.7276 68.9173 51.9196 69.568C52.1222 70.2187 52.4262 70.7467 52.8316 71.152C53.2476 71.5467 53.7969 71.744 54.4796 71.744C54.8742 71.744 55.2102 71.6853 55.4876 71.568C55.7756 71.44 55.9996 71.2587 56.1596 71.024C56.3196 70.7893 56.3996 70.5067 56.3996 70.176C56.3996 69.728 56.2982 69.3387 56.0956 69.008C55.8929 68.6667 55.6156 68.352 55.2636 68.064C54.9222 67.7653 54.5222 67.4667 54.0636 67.168C53.5622 66.8267 53.0929 66.4853 52.6556 66.144C52.2182 65.8027 51.8662 65.4187 51.5996 64.992C51.3436 64.5653 51.2156 64.0587 51.2156 63.472C51.2156 62.768 51.4022 62.1973 51.7756 61.76C52.1489 61.312 52.6396 60.9813 53.2476 60.768C53.8556 60.5547 54.5009 60.448 55.1836 60.448ZM69.5561 60.672C69.5134 61.2053 69.4814 61.7227 69.4601 62.224C69.4494 62.7147 69.4441 63.0933 69.4441 63.36C69.4441 63.584 69.4494 63.7973 69.4601 64C69.4707 64.2027 69.4814 64.3733 69.4921 64.512H69.1241C68.9961 63.6267 68.7827 62.9333 68.4841 62.432C68.1854 61.92 67.8334 61.5627 67.4281 61.36C67.0334 61.1467 66.6174 61.04 66.1801 61.04H65.9721C65.6947 61.04 65.4867 61.0667 65.3481 61.12C65.2094 61.1627 65.1134 61.2533 65.0601 61.392C65.0174 61.5307 64.9961 61.7493 64.9961 62.048V70.624C64.9961 70.912 65.0174 71.1307 65.0601 71.28C65.1134 71.4187 65.2094 71.5147 65.3481 71.568C65.4867 71.6107 65.6947 71.632 65.9721 71.632H66.5001C66.8521 71.632 67.2201 71.52 67.6041 71.296C67.9987 71.0613 68.3614 70.6667 68.6921 70.112C69.0227 69.5573 69.2734 68.8 69.4441 67.84H69.8121C69.7801 68.224 69.7641 68.7147 69.7641 69.312C69.7641 69.5787 69.7694 69.9627 69.7801 70.464C69.7907 70.9547 69.8227 71.4667 69.8761 72C69.3321 71.9787 68.7187 71.968 68.0361 71.968C67.3534 71.9573 66.7454 71.952 66.2121 71.952C65.9241 71.952 65.5561 71.952 65.1081 71.952C64.6707 71.952 64.1907 71.9573 63.6681 71.968C63.1561 71.968 62.6334 71.9733 62.1001 71.984C61.5774 71.984 61.0814 71.9893 60.6121 72V71.68C60.9427 71.6587 61.1881 71.616 61.3481 71.552C61.5081 71.488 61.6147 71.36 61.6681 71.168C61.7214 70.976 61.7481 70.688 61.7481 70.304V62.368C61.7481 61.9733 61.7214 61.6853 61.6681 61.504C61.6147 61.312 61.5027 61.184 61.3321 61.12C61.1721 61.0453 60.9321 61.0027 60.6121 60.992V60.672C61.0814 60.6827 61.5774 60.6933 62.1001 60.704C62.6334 60.704 63.1561 60.7093 63.6681 60.72C64.1907 60.72 64.6707 60.72 65.1081 60.72C65.5561 60.72 65.9241 60.72 66.2121 60.72C66.7027 60.72 67.2574 60.72 67.8761 60.72C68.5054 60.7093 69.0654 60.6933 69.5561 60.672ZM67.2361 66.144C67.2361 66.144 67.2361 66.1973 67.2361 66.304C67.2361 66.4107 67.2361 66.464 67.2361 66.464H64.5161C64.5161 66.464 64.5161 66.4107 64.5161 66.304C64.5161 66.1973 64.5161 66.144 64.5161 66.144H67.2361ZM67.7001 64.032C67.6574 64.64 67.6361 65.104 67.6361 65.424C67.6467 65.744 67.6521 66.0373 67.6521 66.304C67.6521 66.5707 67.6574 66.864 67.6681 67.184C67.6787 67.504 67.7054 67.968 67.7481 68.576H67.3801C67.3161 68.1813 67.1827 67.824 66.9801 67.504C66.7881 67.184 66.5374 66.9333 66.2281 66.752C65.9187 66.56 65.5614 66.464 65.1561 66.464V66.144C65.4547 66.144 65.7267 66.08 65.9721 65.952C66.2174 65.824 66.4307 65.6533 66.6121 65.44C66.8041 65.2267 66.9587 64.9973 67.0761 64.752C67.2041 64.5067 67.2894 64.2667 67.3321 64.032H67.7001ZM80.7568 60.448C81.9621 60.448 83.0181 60.6773 83.9248 61.136C84.8315 61.5947 85.5355 62.256 86.0368 63.12C86.5381 63.9733 86.7888 65.0133 86.7888 66.24C86.7888 67.4347 86.5328 68.48 86.0208 69.376C85.5088 70.272 84.7941 70.9707 83.8768 71.472C82.9701 71.9733 81.9248 72.224 80.7408 72.224C79.5355 72.224 78.4795 71.9947 77.5728 71.536C76.6661 71.0773 75.9621 70.416 75.4608 69.552C74.9595 68.688 74.7088 67.648 74.7088 66.432C74.7088 65.2373 74.9648 64.192 75.4768 63.296C75.9995 62.4 76.7141 61.7013 77.6208 61.2C78.5275 60.6987 79.5728 60.448 80.7568 60.448ZM80.6928 60.736C80.1595 60.736 79.6955 60.976 79.3008 61.456C78.9061 61.936 78.6021 62.5973 78.3888 63.44C78.1755 64.2827 78.0688 65.2587 78.0688 66.368C78.0688 67.4987 78.1915 68.4853 78.4368 69.328C78.6821 70.16 79.0128 70.8053 79.4288 71.264C79.8448 71.712 80.3035 71.936 80.8048 71.936C81.3381 71.936 81.8021 71.696 82.1968 71.216C82.5915 70.736 82.8955 70.0747 83.1088 69.232C83.3221 68.3787 83.4288 67.4027 83.4288 66.304C83.4288 65.1627 83.3061 64.176 83.0608 63.344C82.8155 62.512 82.4848 61.872 82.0688 61.424C81.6528 60.9653 81.1941 60.736 80.6928 60.736ZM87.6902 60.672C87.9995 60.6827 88.4049 60.6933 88.9062 60.704C89.4182 60.7147 89.9302 60.72 90.4422 60.72C90.9755 60.72 91.4875 60.7147 91.9782 60.704C92.4689 60.6933 92.8155 60.688 93.0182 60.688C94.1062 60.688 95.0022 60.7893 95.7062 60.992C96.4209 61.1947 96.9542 61.504 97.3062 61.92C97.6582 62.3253 97.8342 62.8427 97.8342 63.472C97.8342 63.8667 97.7542 64.2507 97.5942 64.624C97.4342 64.9973 97.1622 65.3387 96.7782 65.648C96.3942 65.9467 95.8662 66.1867 95.1942 66.368C94.5329 66.5387 93.6902 66.624 92.6662 66.624H91.1302V66.304H92.5062C93.0502 66.304 93.4609 66.1867 93.7382 65.952C94.0262 65.7067 94.2182 65.3867 94.3142 64.992C94.4209 64.5867 94.4742 64.1387 94.4742 63.648C94.4742 62.8053 94.3569 62.1547 94.1222 61.696C93.8982 61.2267 93.5035 60.992 92.9382 60.992C92.5755 60.992 92.3409 61.0827 92.2342 61.264C92.1275 61.4453 92.0742 61.8133 92.0742 62.368V70.304C92.0742 70.688 92.1009 70.976 92.1542 71.168C92.2182 71.36 92.3302 71.488 92.4902 71.552C92.6502 71.616 92.8902 71.6587 93.2102 71.68V72C92.9009 71.9787 92.5009 71.968 92.0102 71.968C91.5302 71.9573 91.0395 71.952 90.5382 71.952C89.9622 71.952 89.4182 71.9573 88.9062 71.968C88.4049 71.968 87.9995 71.9787 87.6902 72V71.68C88.0209 71.6587 88.2662 71.616 88.4262 71.552C88.5862 71.488 88.6929 71.36 88.7462 71.168C88.7995 70.976 88.8262 70.688 88.8262 70.304V62.368C88.8262 61.9733 88.7995 61.6853 88.7462 61.504C88.6929 61.312 88.5809 61.184 88.4102 61.12C88.2502 61.0453 88.0102 61.0027 87.6902 60.992V60.672ZM91.0342 66.352C91.4182 66.3627 91.7809 66.384 92.1222 66.416C92.4635 66.448 92.7782 66.48 93.0662 66.512C93.3542 66.5333 93.5995 66.5493 93.8022 66.56C94.9435 66.6133 95.7969 66.8107 96.3622 67.152C96.9382 67.4933 97.2902 67.9947 97.4182 68.656L97.7542 70.32C97.8395 70.7147 97.9355 70.9867 98.0422 71.136C98.1489 71.2853 98.2929 71.36 98.4742 71.36C98.5809 71.36 98.6715 71.344 98.7462 71.312C98.8209 71.28 98.8955 71.2267 98.9702 71.152L99.1782 71.36C98.8475 71.6907 98.4849 71.9147 98.0902 72.032C97.7062 72.16 97.2689 72.224 96.7782 72.224C96.0849 72.224 95.5249 72.1013 95.0982 71.856C94.6715 71.6 94.4102 71.1467 94.3142 70.496L94.0742 68.896C94.0102 68.4587 93.9302 68.0693 93.8342 67.728C93.7382 67.3867 93.6102 67.12 93.4502 66.928C93.2902 66.7253 93.0715 66.624 92.7942 66.624H91.0662L91.0342 66.352ZM109.589 60.672C109.547 61.3013 109.515 61.9093 109.493 62.496C109.483 63.0827 109.477 63.5307 109.477 63.84C109.477 64.064 109.483 64.2773 109.493 64.48C109.504 64.6827 109.515 64.8533 109.525 64.992H109.157C108.912 63.9893 108.613 63.2 108.261 62.624C107.92 62.048 107.552 61.6427 107.157 61.408C106.773 61.1627 106.389 61.04 106.005 61.04H105.989V70.192C105.989 70.6293 106.032 70.9547 106.117 71.168C106.213 71.3813 106.389 71.52 106.645 71.584C106.901 71.648 107.275 71.68 107.765 71.68V72C107.392 71.9893 106.885 71.9787 106.245 71.968C105.616 71.9573 104.955 71.952 104.261 71.952C103.6 71.952 102.976 71.9573 102.389 71.968C101.803 71.9787 101.328 71.9893 100.965 72V71.68C101.456 71.68 101.829 71.648 102.085 71.584C102.341 71.52 102.512 71.3813 102.597 71.168C102.693 70.9547 102.741 70.6293 102.741 70.192V61.04H102.725C102.341 61.04 101.952 61.1627 101.557 61.408C101.173 61.6427 100.811 62.048 100.469 62.624C100.128 63.1893 99.8294 63.9787 99.5734 64.992H99.2054C99.2268 64.8533 99.2374 64.6827 99.2374 64.48C99.2481 64.2773 99.2534 64.064 99.2534 63.84C99.2534 63.5307 99.2428 63.0827 99.2214 62.496C99.2108 61.9093 99.1841 61.3013 99.1414 60.672C99.6534 60.6827 100.219 60.6933 100.837 60.704C101.456 60.7147 102.075 60.72 102.693 60.72C103.312 60.72 103.872 60.72 104.373 60.72C104.875 60.72 105.435 60.72 106.053 60.72C106.672 60.72 107.291 60.7147 107.909 60.704C108.528 60.6933 109.088 60.6827 109.589 60.672ZM115.929 60.672V60.992C115.609 61.0027 115.364 61.0453 115.193 61.12C115.033 61.184 114.926 61.312 114.873 61.504C114.82 61.6853 114.793 61.9733 114.793 62.368V70.304C114.793 70.688 114.82 70.976 114.873 71.168C114.937 71.36 115.049 71.488 115.209 71.552C115.369 71.616 115.609 71.6587 115.929 71.68V72C115.62 71.9787 115.22 71.968 114.729 71.968C114.249 71.9573 113.758 71.952 113.257 71.952C112.681 71.952 112.137 71.9573 111.625 71.968C111.124 71.968 110.718 71.9787 110.409 72V71.68C110.74 71.6587 110.985 71.616 111.145 71.552C111.305 71.488 111.412 71.36 111.465 71.168C111.518 70.976 111.545 70.688 111.545 70.304V62.368C111.545 61.9733 111.518 61.6853 111.465 61.504C111.412 61.312 111.3 61.184 111.129 61.12C110.969 61.0453 110.729 61.0027 110.409 60.992V60.672C110.718 60.6827 111.124 60.6933 111.625 60.704C112.137 60.7147 112.681 60.72 113.257 60.72C113.758 60.72 114.249 60.7147 114.729 60.704C115.22 60.6933 115.62 60.6827 115.929 60.672ZM125.359 60.672V60.992L120.511 71.632H121.183C121.46 71.632 121.796 71.568 122.191 71.44C122.596 71.312 123.001 71.104 123.407 70.816C123.812 70.528 124.169 70.144 124.479 69.664C124.788 69.1733 124.98 68.5653 125.055 67.84H125.423C125.391 68.224 125.375 68.7147 125.375 69.312C125.375 69.5787 125.38 69.9627 125.391 70.464C125.401 70.9547 125.433 71.4667 125.487 72C125.092 71.9787 124.66 71.968 124.191 71.968C123.721 71.9573 123.252 71.952 122.783 71.952C122.324 71.952 121.897 71.952 121.503 71.952C120.777 71.952 120.015 71.9573 119.215 71.968C118.425 71.968 117.679 71.9787 116.975 72V71.68L121.823 61.04H121.023C120.692 61.04 120.34 61.0933 119.967 61.2C119.593 61.3067 119.231 61.4933 118.879 61.76C118.527 62.016 118.223 62.368 117.967 62.816C117.711 63.264 117.535 63.8293 117.439 64.512H117.071C117.092 64.3733 117.103 64.2027 117.103 64C117.113 63.7973 117.119 63.584 117.119 63.36C117.119 63.0933 117.108 62.7147 117.087 62.224C117.076 61.7227 117.049 61.2053 117.007 60.672C117.337 60.6827 117.7 60.6933 118.095 60.704C118.489 60.7147 118.884 60.72 119.279 60.72C119.673 60.72 120.031 60.72 120.351 60.72C121.151 60.72 121.988 60.72 122.863 60.72C123.748 60.7093 124.58 60.6933 125.359 60.672Z" fill="black"/>
</g>
<defs>
<clipPath id="clip0_1_10">
<rect width="150" height="150" fill="white"/>
</clipPath>
</defs>
</svg>
